<?xml version="1.0" standalone="no"?>
<!DOCTYPE svg PUBLIC "-//W3C//DTD SVG 20010904//EN"
 "http://www.w3.org/TR/2001/REC-SVG-20010904/DTD/svg10.dtd">
<svg version="1.0" xmlns="http://www.w3.org/2000/svg"
 width="433.000000pt" height="417.000000pt" viewBox="0 0 433.000000 417.000000"
 preserveAspectRatio="xMidYMid meet">

<g transform="translate(0.000000,417.000000) scale(0.100000,-0.100000)"
fill="#000000" stroke="none">
<path d="M157 4056 c-71 -26 -105 -73 -132 -179 -15 -65 -15 -72 1 -125 23
-72 84 -136 145 -152 49 -13 128 -6 169 15 36 19 78 70 86 103 15 70 6 65 118
57 55 -3 105 -10 110 -15 4 -4 8 -68 8 -141 -1 -99 3 -138 14 -153 19 -28 18
-36 -6 -36 -23 0 -27 -18 -5 -26 9 -4 15 -19 15 -38 0 -24 -3 -27 -10 -16 -8
12 -10 9 -10 -12 0 -19 4 -26 14 -22 20 8 29 -12 16 -35 -7 -14 -26 -22 -67
-27 -32 -4 -50 -10 -40 -12 9 -2 15 -7 12 -12 -3 -5 -12 -7 -19 -4 -8 3 -17 1
-20 -5 -4 -6 -13 -8 -21 -5 -7 3 -23 1 -34 -6 -19 -10 -21 -20 -21 -96 l0 -85
33 3 32 3 0 -120 0 -120 -37 -3 -38 -3 0 -80 c0 -62 3 -79 14 -79 8 0 18 5 21
10 3 6 15 10 26 10 10 0 19 -4 19 -10 0 -6 26 -10 59 -10 43 0 60 4 65 15 7
19 21 19 40 -1 14 -13 33 -14 131 -8 l115 7 1 246 c0 135 2 261 5 278 5 41
-18 58 -107 76 l-64 13 4 74 c1 41 8 78 14 82 7 4 2 11 -13 16 -22 9 -23 11
-7 17 14 6 17 20 17 70 l0 63 65 63 65 62 -21 23 c-30 32 -16 44 55 44 l62 0
12 -47 c18 -67 81 -127 149 -142 113 -24 206 25 254 133 35 81 16 191 -47 265
-33 39 -95 70 -140 71 -27 0 -35 -6 -53 -40 -12 -22 -21 -51 -21 -63 0 -12 -5
-38 -10 -59 -9 -31 -17 -39 -58 -53 -37 -13 -207 -33 -289 -35 -7 0 -16 15
-21 33 -8 31 -10 32 -70 35 -61 3 -62 2 -62 -23 0 -25 -1 -25 -72 -24 -40 0
-93 4 -117 7 -43 7 -43 7 -63 70 -40 132 -155 199 -271 158z m430 -1412 c-3
-3 -12 -4 -19 -1 -8 3 -5 6 6 6 11 1 17 -2 13 -5z"/>
<path d="M717 3923 c-17 -16 -5 -33 23 -33 28 0 30 2 20 20 -11 20 -31 26 -43
13z"/>
<path d="M1335 2761 l-70 -6 -3 -47 c-2 -27 1 -49 5 -49 4 -1 117 -2 251 -3
l242 -2 0 52 c0 38 -4 53 -16 58 -19 7 -309 5 -409 -3z"/>
<path d="M1249 2616 c-2 -2 -110 -7 -239 -11 -129 -3 -309 -11 -400 -15 -296
-16 -404 -20 -492 -20 -51 1 -89 -3 -93 -9 -4 -7 16 -11 60 -11 77 0 132 -20
144 -52 9 -22 10 -22 16 9 12 52 75 50 90 -4 l8 -28 6 30 c5 24 12 31 35 33
34 4 42 -3 50 -43 5 -23 2 -36 -14 -52 -25 -27 -25 -29 0 -36 14 -4 26 3 40
23 25 35 89 66 153 75 42 7 47 10 41 27 -4 13 -1 24 7 29 11 6 17 -3 26 -39
11 -47 11 -47 12 -11 1 24 7 39 17 43 21 8 37 -3 30 -21 -4 -9 1 -21 11 -29
17 -13 17 -13 1 -14 -13 0 -18 -8 -18 -30 0 -27 -3 -30 -30 -30 -16 0 -30 -4
-30 -9 0 -23 14 -41 31 -41 23 0 25 -28 4 -37 -9 -3 -22 2 -30 13 -33 43 -14
-24 29 -106 22 -40 96 -90 211 -141 105 -48 106 -48 103 -23 -2 20 -19 32
-103 69 -127 57 -163 92 -172 164 -4 39 -3 55 8 61 9 6 13 25 11 54 -1 25 2
47 6 50 13 8 108 -39 153 -76 23 -18 56 -52 74 -75 28 -36 35 -41 45 -28 9 11
8 20 -9 44 -38 53 -125 124 -191 155 -72 34 -74 33 66 38 l81 3 -5 -37 c-3
-25 -1 -38 7 -38 6 0 11 13 11 28 0 43 16 52 100 52 85 0 100 -8 100 -56 l0
-32 47 6 46 5 -6 -36 c-7 -42 -56 -109 -74 -102 -7 2 -13 1 -13 -4 0 -14 71
-18 85 -5 6 7 22 48 35 92 l23 80 204 7 203 7 0 48 c0 47 0 47 -37 54 -41 6
-467 9 -474 2z m-244 -46 c3 -5 -1 -10 -9 -10 -9 0 -16 5 -16 10 0 6 4 10 9
10 6 0 13 -4 16 -10z m-495 -44 c0 -3 -13 -14 -30 -26 l-30 -21 0 25 c0 22 4
26 30 26 17 0 30 -2 30 -4z"/>
<path d="M3330 2571 c-11 -8 -2 -11 37 -11 57 0 103 -14 103 -30 0 -16 -297
-1 -334 16 -28 13 -28 13 -22 -14 4 -15 9 -35 12 -44 5 -16 -2 -17 -60 -11
l-64 6 -12 -39 c-10 -34 -8 -54 17 -154 l29 -115 79 -7 c108 -10 115 -16 18
-17 -59 -1 -83 -5 -83 -13 0 -7 16 -77 37 -155 l38 -143 82 0 c45 0 85 -4 88
-10 4 -6 -25 -10 -80 -10 -78 0 -86 -2 -81 -17 5 -18 45 -169 66 -250 l11 -43
84 0 c50 0 85 -4 85 -10 0 -6 -33 -10 -80 -10 -44 0 -80 -3 -80 -7 0 -5 16
-74 37 -155 l38 -148 90 0 c62 0 85 -3 75 -10 -8 -5 -45 -10 -82 -10 -83 0
-81 9 -30 -180 l37 -135 84 4 c59 2 82 0 77 -8 -4 -6 -38 -11 -82 -11 -41 0
-74 -3 -74 -7 0 -5 14 -64 32 -133 41 -159 58 -180 154 -180 l63 0 11 -40 c6
-22 9 -44 6 -49 -3 -4 -30 -11 -61 -15 -70 -8 -107 10 -135 64 -11 22 -23 40
-25 40 -3 0 -3 -28 -1 -62 l3 -63 37 -2 c21 0 43 -6 49 -12 5 -5 9 -36 8 -68
-2 -67 19 -99 71 -110 30 -6 33 -19 14 -63 -4 -9 0 -24 8 -35 13 -18 14 -18
40 10 34 36 34 80 1 125 -14 19 -30 51 -35 71 -8 28 -15 35 -32 35 -18 -1 -23
4 -23 24 0 29 -9 28 334 59 117 11 216 23 220 27 3 3 -18 4 -47 3 -58 -4 -60
-2 -65 66 -2 29 -1 30 48 33 85 5 91 33 48 204 l-28 108 -80 1 -80 2 76 9 77
10 -29 112 c-16 61 -34 128 -40 149 l-10 37 -82 2 -82 1 78 10 c43 6 77 15 77
21 -1 6 -17 72 -38 146 l-37 135 -80 5 -80 5 73 6 c40 4 75 8 77 11 5 5 -61
256 -73 278 -6 10 -32 17 -83 21 l-74 5 73 2 c47 1 72 6 72 14 0 6 -16 73 -36
150 l-37 138 -73 0 c-44 0 -76 5 -80 12 -5 8 13 10 69 5 43 -3 77 -3 77 1 0 3
-14 58 -31 121 -39 149 -59 174 -142 181 l-59 5 -18 48 -18 47 58 0 c33 0 62
5 65 10 4 6 -12 10 -42 10 -26 0 -84 3 -128 6 -49 3 -86 1 -95 -5z m88 -87
c44 -4 62 -10 62 -20 0 -12 -13 -13 -71 -8 -55 6 -73 4 -80 -7 -5 -8 -9 -9 -9
-3 0 7 -33 14 -85 19 -63 5 -85 10 -85 21 0 14 85 14 268 -2z m-59 -154 c0 -9
-4 -8 -9 5 -5 11 -9 27 -9 35 0 9 4 8 9 -5 5 -11 9 -27 9 -35z m8 -42 c-3 -8
-6 -5 -6 6 -1 11 2 17 5 13 3 -3 4 -12 1 -19z m20 -80 c-3 -8 -6 -5 -6 6 -1
11 2 17 5 13 3 -3 4 -12 1 -19z m36 -53 c12 -3 51 -6 87 -8 61 -3 59 -3 -18
-5 -74 -2 -83 -4 -78 -19 13 -46 14 -72 0 -30 l-15 47 -57 1 c-31 1 -68 5 -82
10 -17 6 -1 8 53 6 71 -2 77 -1 78 18 1 17 2 17 6 3 2 -10 14 -20 26 -23z m31
-185 c4 -24 3 -29 -3 -15 -4 11 -11 36 -15 55 -4 24 -3 29 3 15 4 -11 11 -36
15 -55z m25 -90 c0 -9 -4 -8 -9 5 -5 11 -9 27 -9 35 0 9 4 8 9 -5 5 -11 9 -27
9 -35z m94 -52 l82 -2 -77 -3 c-65 -3 -78 -7 -79 -21 -1 -16 -2 -16 -6 1 -4
14 -17 17 -89 17 -47 0 -84 4 -84 10 0 11 163 19 168 8 2 -5 40 -9 85 -10z
m-66 -70 c-3 -8 -6 -5 -6 6 -1 11 2 17 5 13 3 -3 4 -12 1 -19z m10 -40 c-3 -8
-6 -5 -6 6 -1 11 2 17 5 13 3 -3 4 -12 1 -19z m58 -195 c3 -9 31 -14 87 -15
46 -1 65 -3 43 -5 -22 -2 -59 -5 -81 -8 l-42 -6 15 -56 c8 -30 12 -57 10 -60
-3 -2 -8 9 -11 24 -4 15 -12 45 -17 66 l-10 37 -82 2 -82 2 78 3 c87 4 87 4
62 87 -8 27 -15 54 -14 60 0 6 10 -18 20 -54 11 -36 22 -71 24 -77z m42 -185
c-3 -8 -6 -5 -6 6 -1 11 2 17 5 13 3 -3 4 -12 1 -19z m27 -88 c4 -24 3 -29 -3
-15 -4 11 -11 36 -15 55 -4 24 -3 29 3 15 4 -11 11 -36 15 -55z m99 -61 l82
-2 -74 -8 c-41 -5 -78 -14 -83 -21 -6 -10 -8 -10 -8 0 0 8 -25 12 -87 13 -98
1 -81 16 20 18 38 1 57 5 58 14 0 10 2 10 6 0 3 -9 31 -13 86 -14z m-46 -151
c-3 -8 -6 -5 -6 6 -1 11 2 17 5 13 3 -3 4 -12 1 -19z m203 -176 c0 -5 -51 -12
-112 -15 -146 -9 -213 -9 -204 0 14 14 316 29 316 15z m-113 -174 c-3 -8 -6
-5 -6 6 -1 11 2 17 5 13 3 -3 4 -12 1 -19z m201 -165 c-3 -15 -20 -20 -123
-29 -183 -18 -195 -18 -195 6 0 17 7 20 48 21 26 1 60 4 77 8 16 3 67 8 113 9
77 3 83 2 80 -15z m12 -71 c0 -7 -254 -33 -305 -32 -19 1 -19 2 1 10 11 4 70
11 130 15 60 4 111 9 113 11 8 8 61 4 61 -4z"/>
<path d="M4133 2534 c30 -16 32 -28 16 -71 -6 -15 -19 -77 -30 -137 -17 -92
-18 -112 -6 -123 8 -9 50 -16 115 -20 l102 -6 0 185 0 185 -112 1 c-106 1
-111 0 -85 -14z"/>
<path d="M2916 2445 c11 -48 25 -76 18 -35 -4 19 -10 42 -15 50 -6 10 -7 5 -3
-15z"/>
<path d="M765 2350 c-3 -5 -1 -10 4 -10 6 0 11 5 11 10 0 6 -2 10 -4 10 -3 0
-8 -4 -11 -10z"/>
<path d="M1316 2334 c-4 -9 1 -14 14 -14 23 0 27 15 6 23 -8 3 -17 -1 -20 -9z"/>
<path d="M1070 2254 c0 -9 5 -14 12 -12 18 6 21 28 4 28 -9 0 -16 -7 -16 -16z"/>
<path d="M3902 2108 c-16 -21 -35 -95 -28 -113 9 -25 154 -16 172 11 35 51 18
49 227 28 l57 -6 0 37 0 37 -52 -8 c-71 -10 -130 -6 -179 12 -48 16 -64 9 -73
-36 -4 -21 -11 -30 -25 -30 -22 0 -51 35 -51 62 0 21 -32 24 -48 6z"/>
<path d="M1370 2042 c-57 -31 -50 -42 29 -42 l71 0 0 30 c0 27 -3 30 -33 30
-18 0 -48 -8 -67 -18z"/>
<path d="M2655 2044 c-11 -12 -13 -19 -5 -24 6 -4 12 -18 14 -31 1 -14 4 -29
7 -34 3 -6 6 -26 8 -45 4 -54 31 -85 75 -84 l36 1 1 -131 c1 -72 1 -134 0
-138 0 -5 4 -8 11 -8 6 0 9 -3 5 -6 -3 -4 1 -20 9 -36 8 -16 17 -43 18 -61 5
-45 17 -90 28 -104 16 -20 1 -43 -29 -44 -76 -2 -75 -29 2 -54 28 -10 56 -22
63 -27 16 -13 40 -65 46 -98 14 -83 21 -107 43 -147 14 -24 38 -54 54 -65 59
-44 40 -53 -126 -64 -60 -3 -115 -11 -122 -16 -8 -6 -12 -64 -13 -185 l-1
-176 58 7 c204 22 436 36 485 31 39 -5 58 -3 58 4 0 20 -219 861 -245 941 -8
25 -40 146 -71 270 -31 124 -63 251 -72 283 l-14 57 -154 0 c-128 0 -155 -3
-169 -16z m425 -1354 c0 -5 -2 -10 -4 -10 -3 0 -8 5 -11 10 -3 6 -1 10 4 10 6
0 11 -4 11 -10z m-237 -26 c-7 -18 -33 -18 -33 -1 0 19 10 27 25 20 8 -2 11
-11 8 -19z m37 16 c0 -5 -2 -10 -4 -10 -3 0 -8 5 -11 10 -3 6 -1 10 4 10 6 0
11 -4 11 -10z m160 -5 c0 -9 -6 -12 -15 -9 -8 4 -12 10 -9 15 8 14 24 10 24
-6z"/>
<path d="M1506 1969 c-4 -44 -6 -83 -4 -85 4 -3 117 14 146 22 20 6 -9 53 -62
102 -65 60 -72 57 -80 -39z"/>
<path d="M1257 1927 c-15 -25 -34 -74 -42 -109 -16 -67 -20 -195 -7 -215 9
-14 138 -46 157 -39 27 10 123 372 103 391 -2 2 -44 7 -94 11 l-91 7 -26 -46z"/>
<path d="M1897 1858 c3 -39 10 -58 26 -71 21 -18 22 -26 21 -220 l-2 -202 9
179 c4 98 10 185 13 193 4 8 13 13 21 9 12 -4 15 3 15 32 0 32 -8 45 -48 85
-26 26 -50 47 -53 47 -3 0 -4 -24 -2 -52z"/>
<path d="M3830 1884 c0 -19 17 -34 32 -29 9 4 34 2 55 -4 22 -6 98 -13 169
-16 71 -3 155 -9 187 -13 l57 -9 0 27 0 27 -137 7 c-76 3 -189 9 -250 12 -65
4 -113 3 -113 -2z"/>
<path d="M1565 1858 l-70 -9 -23 -96 c-13 -52 -22 -96 -20 -97 11 -8 244 -64
248 -59 10 10 4 189 -8 231 -14 47 -9 46 -127 30z"/>
<path d="M1415 1578 c-9 -24 -34 -74 -56 -112 -22 -38 -38 -75 -35 -83 8 -21
86 -53 130 -53 52 0 117 32 157 78 32 36 85 139 76 148 -6 7 -219 64 -238 64
-11 0 -23 -16 -34 -42z"/>
<path d="M1225 1528 c8 -25 53 -108 60 -108 5 0 67 102 63 105 -6 5 -97 25
-113 25 -12 0 -15 -6 -10 -22z"/>
<path d="M1060 1194 c0 -8 5 -12 10 -9 6 3 10 10 10 16 0 5 -4 9 -10 9 -5 0
-10 -7 -10 -16z"/>
<path d="M1980 1190 c0 -5 11 -10 25 -10 14 0 25 5 25 10 0 6 -11 10 -25 10
-14 0 -25 -4 -25 -10z"/>
<path d="M1123 1014 c9 -143 56 -242 142 -300 33 -22 53 -27 123 -30 47 -2 90
-8 96 -13 16 -12 286 -23 300 -12 6 5 34 12 61 16 45 6 48 5 32 -9 -18 -14
-17 -15 15 -18 18 -2 45 0 59 5 23 7 27 15 33 60 3 29 6 80 6 115 0 46 4 62
14 62 10 0 15 23 18 93 3 50 4 93 3 95 -2 2 -47 -2 -102 -8 -93 -11 -367 -1
-722 27 l-84 6 6 -89z m247 36 c-5 -3 -3 -18 6 -35 16 -32 16 -95 -1 -107 -21
-16 -64 -8 -79 14 -18 26 -21 84 -5 93 5 4 7 19 4 34 l-6 28 45 -11 c25 -6 41
-13 36 -16z m165 -26 c8 -20 16 -55 17 -78 l3 -41 -44 -5 c-41 -5 -45 -8 -58
-45 -26 -77 -63 -85 -63 -14 0 25 7 46 19 58 23 23 39 103 22 109 -17 6 -13
30 7 41 9 6 32 11 49 11 28 0 35 -5 48 -36z m161 9 c1 -7 2 -20 3 -28 0 -9 9
-19 19 -22 22 -8 32 -23 32 -49 0 -29 -28 -50 -77 -58 -36 -5 -44 -3 -57 16
-20 29 -20 51 1 96 12 26 14 37 5 40 -7 2 -12 8 -12 13 0 15 85 6 86 -8z m154
-5 c0 -13 39 -48 54 -48 8 0 15 -14 18 -35 5 -47 -23 -75 -78 -75 -22 0 -45 5
-52 12 -14 14 -16 108 -2 108 6 0 10 7 10 15 0 8 -4 15 -10 15 -5 0 -7 6 -4
14 5 14 65 8 64 -6z m-250 -2 c0 -3 -4 -8 -10 -11 -5 -3 -10 -1 -10 4 0 6 5
11 10 11 6 0 10 -2 10 -4z m-14 -191 c-17 -40 -31 -45 -40 -12 -12 45 -7 65
17 69 32 5 40 -16 23 -57z m-336 10 c0 -5 -5 -3 -10 5 -5 8 -10 20 -10 25 0 6
5 3 10 -5 5 -8 10 -19 10 -25z m251 -53 c-10 -62 -16 -71 -37 -50 -14 13 -12
19 13 60 15 25 29 45 30 44 1 -1 -1 -26 -6 -54z m293 -68 c23 -9 20 -24 -4
-24 -14 0 -20 -7 -20 -21 0 -18 -2 -19 -15 -9 -16 13 -20 42 -8 53 8 9 27 9
47 1z"/>
<path d="M56 754 c-7 -19 1 -34 19 -34 8 0 16 4 19 9 9 14 -4 41 -19 41 -7 0
-16 -7 -19 -16z"/>
<path d="M334 506 c-9 -22 4 -36 32 -36 21 0 25 4 22 23 -4 26 -45 37 -54 13z"/>
<path d="M2607 441 c-41 -26 -42 -29 -22 -51 24 -26 41 -25 60 4 13 19 14 29
5 45 -6 12 -12 21 -13 20 -1 0 -14 -8 -30 -18z"/>
<path d="M4148 443 c6 -2 18 -2 25 0 6 3 1 5 -13 5 -14 0 -19 -2 -12 -5z"/>
<path d="M2563 295 c-50 -35 -5 -83 53 -56 20 9 25 17 22 39 -4 33 -41 41 -75
17z"/>
<path d="M4092 265 c0 -16 2 -22 5 -12 2 9 2 23 0 30 -3 6 -5 -1 -5 -18z"/>
<path d="M265 241 c-32 -5 -42 -12 -49 -34 -14 -40 4 -55 47 -39 18 7 41 12
50 12 10 0 17 8 17 19 0 24 -10 51 -19 50 -3 -1 -24 -5 -46 -8z"/>
<path d="M2228 203 c12 -2 32 -2 45 0 12 2 2 4 -23 4 -25 0 -35 -2 -22 -4z"/>
<path d="M2496 121 c-25 -39 -34 -81 -18 -81 4 0 24 16 45 36 25 24 37 43 35
58 -5 37 -35 31 -62 -13z"/>
<path d="M101 117 c-41 -21 -39 -39 5 -35 31 2 39 7 39 22 0 25 -14 29 -44 13z"/>
<path d="M1396 84 c-4 -9 2 -31 12 -48 13 -23 26 -32 50 -34 27 -3 31 -1 25
15 -7 20 -63 83 -74 83 -4 0 -10 -7 -13 -16z"/>
<path d="M2645 60 c-8 -26 11 -60 35 -60 22 0 25 16 10 54 -11 31 -36 34 -45
6z"/>
<path d="M2859 39 c-8 -17 -8 -23 2 -30 19 -11 29 -2 29 27 0 30 -15 31 -31 3z"/>
<path d="M1015 10 c-4 -6 5 -10 20 -10 15 0 24 4 20 10 -8 13 -32 13 -40 0z"/>
<path d="M1145 10 c-3 -5 3 -10 14 -10 12 0 21 5 21 10 0 6 -6 10 -14 10 -8 0
-18 -4 -21 -10z"/>
<path d="M583 3 c9 -2 23 -2 30 0 6 3 -1 5 -18 5 -16 0 -22 -2 -12 -5z"/>
</g>
</svg>
